<svg xmlns="http://www.w3.org/2000/svg" viewBox="0 0 390 780" fill="none" aria-hidden="true">
  <rect width="390" height="780" fill="#FFF8F0"/>
  <rect x="0" y="0" width="390" height="88" fill="#FF5722"/>
  <text x="24" y="54" font-family="system-ui,sans-serif" font-size="20" font-weight="800" fill="#fff">Babpool</text>
  <text x="24" y="130" font-family="system-ui,sans-serif" font-size="22" font-weight="800" fill="#1A1A1A">$ÿX %┴</text>
  <rect x="24" y="160" width="342" height="200" rx="20" fill="#fff"/>
  <circle cx="80" cy="230" r="40" fill="#FFE0B2"/>
  <rect x="140" y="200" width="180" height="12" rx="6" fill="#FFE0B2"/>
  <rect x="140" y="224" width="140" height="10" rx="5" fill="#FFF3E0"/>
  <rect x="140" y="246" width="160" height="10" rx="5" fill="#FFF3E0"/>
  <rect x="48" y="290" width="294" height="44" rx="12" fill="#FF7043"/>
  <text x="24" y="400" font-family="system-ui,sans-serif" font-size="18" font-weight="700" fill="#1A1A1A">ö£ Tt©</text>
  <rect x="24" y="420" width="342" height="72" rx="14" fill="#fff"/>
  <rect x="24" y="508" width="342" height="72" rx="14" fill="#fff"/>
  <rect x="24" y="596" width="342" height="72" rx="14" fill="#fff"/>
  <circle cx="60" cy="456" r="22" fill="#FFCC80"/>
  <circle cx="60" cy="544" r="22" fill="#FFB74D"/>
  <circle cx="60" cy="632" r="22" fill="#FF8A65"/>
</svg>
