<svg xmlns="http://www.w3.org/2000/svg" viewBox="0 0 390 780" fill="none" aria-hidden="true">
  <rect width="390" height="780" fill="#F4FBFF"/>
  <rect x="0" y="0" width="390" height="88" fill="#fff"/>
  <rect x="145" y="28" width="100" height="28" rx="14" fill="#EAF6FC"/>
  <text x="24" y="130" font-family="system-ui,sans-serif" font-size="22" font-weight="800" fill="#1A1A1A">Today&apos;s Pair</text>
  <rect x="24" y="160" width="342" height="220" rx="20" fill="#fff"/>
  <rect x="48" y="190" width="72" height="72" rx="16" fill="#6EC4E8"/>
  <rect x="136" y="198" width="180" height="14" rx="7" fill="#D6EEF8"/>
  <rect x="136" y="224" width="140" height="10" rx="5" fill="#EAF6FC"/>
  <rect x="136" y="246" width="160" height="10" rx="5" fill="#EAF6FC"/>
  <rect x="48" y="290" width="294" height="56" rx="12" fill="#4AABD4"/>
  <text x="24" y="430" font-family="system-ui,sans-serif" font-size="18" font-weight="700" fill="#1A1A1A">Saved Links</text>
  <rect x="24" y="450" width="342" height="64" rx="14" fill="#fff"/>
  <rect x="24" y="530" width="342" height="64" rx="14" fill="#fff"/>
  <rect x="24" y="610" width="342" height="64" rx="14" fill="#fff"/>
  <rect x="48" y="468" width="220" height="10" rx="5" fill="#D6EEF8"/>
  <rect x="48" y="548" width="190" height="10" rx="5" fill="#D6EEF8"/>
  <rect x="48" y="628" width="210" height="10" rx="5" fill="#D6EEF8"/>
</svg>
