<svg xmlns="http://www.w3.org/2000/svg" viewBox="0 0 800 560" fill="none" aria-hidden="true">
  <rect width="800" height="560" fill="#EAF6FC"/>
  <rect x="0" y="0" width="800" height="44" fill="#fff"/>
  <circle cx="20" cy="22" r="6" fill="#FF6B6B"/>
  <circle cx="40" cy="22" r="6" fill="#FFD166"/>
  <circle cx="60" cy="22" r="6" fill="#6EC4E8"/>
  <rect x="0" y="44" width="180" height="516" fill="#fff"/>
  <rect x="24" y="68" width="48" height="48" rx="10" fill="#6EC4E8"/>
  <rect x="84" y="78" width="72" height="10" rx="5" fill="#4AABD4"/>
  <rect x="24" y="140" width="132" height="12" rx="6" fill="#D6EEF8"/>
  <rect x="24" y="168" width="108" height="12" rx="6" fill="#EAF6FC"/>
  <rect x="24" y="196" width="120" height="12" rx="6" fill="#EAF6FC"/>
  <text x="220" y="110" font-family="system-ui,sans-serif" font-size="28" font-weight="800" fill="#1A1A1A">September Archive</text>
  <rect x="220" y="140" width="520" height="320" rx="16" fill="#fff"/>
  <rect x="260" y="200" width="56" height="180" rx="6" fill="#6EC4E8"/>
  <rect x="330" y="210" width="48" height="170" rx="6" fill="#4AABD4"/>
  <rect x="392" y="195" width="52" height="185" rx="6" fill="#89D4F0"/>
  <rect x="458" y="205" width="44" height="175" rx="6" fill="#6EC4E8"/>
  <rect x="516" y="190" width="50" height="190" rx="6" fill="#4AABD4"/>
  <rect x="582" y="200" width="46" height="180" rx="6" fill="#89D4F0"/>
  <rect x="220" y="470" width="520" height="14" rx="4" fill="#C49A6C"/>
  <text x="220" y="520" font-family="system-ui,sans-serif" font-size="14" font-weight="600" fill="#4AABD4">Pair #12 · 24 links saved</text>
</svg>
